<svg xmlns="http://www.w3.org/2000/svg" viewBox="0 0 1200 630" role="img" aria-label="EnsureCollege — your whole college plan, in one place">
  <defs>
    <linearGradient id="mk" x1="0" y1="0" x2="1" y2="1">
      <stop stop-color="#818cf8"/><stop offset="1" stop-color="#4338ca"/>
    </linearGradient>
    <radialGradient id="gA" cx="0.15" cy="0" r="0.75">
      <stop stop-color="#818cf8" stop-opacity="0.2"/><stop offset="1" stop-color="#818cf8" stop-opacity="0"/>
    </radialGradient>
    <radialGradient id="gB" cx="1" cy="1" r="0.65">
      <stop stop-color="#f5b544" stop-opacity="0.14"/><stop offset="1" stop-color="#f5b544" stop-opacity="0"/>
    </radialGradient>
    <linearGradient id="rg" x1="0" y1="0" x2="1" y2="1">
      <stop stop-color="#34d399"/><stop offset="1" stop-color="#818cf8"/>
    </linearGradient>
  </defs>

  <rect width="1200" height="630" fill="#0b0e16"/>
  <rect x="24" y="24" width="1152" height="582" rx="28" fill="#141a27" stroke="#ffffff" stroke-opacity="0.1" stroke-width="2"/>
  <rect x="24" y="24" width="1152" height="582" rx="28" fill="url(#gA)"/>
  <rect x="24" y="24" width="1152" height="582" rx="28" fill="url(#gB)"/>

  <g transform="translate(76,74)">
    <rect width="60" height="60" rx="15" fill="url(#mk)"/>
    <path d="M30 12 L43 16.5 V30 C43 39 37 44.5 30 47 C23 44.5 17 39 17 30 V16.5 Z"
          fill="#0b0e16" fill-opacity="0.16" stroke="#0b0e16" stroke-width="2.4" stroke-linejoin="round"/>
    <path d="M23.5 30 l4.5 4.5 l8.5 -10.5" fill="none" stroke="#0b0e16" stroke-width="3.4"
          stroke-linecap="round" stroke-linejoin="round"/>
    <text x="78" y="24" font-family="'Plus Jakarta Sans',system-ui,Arial,sans-serif" font-size="29" font-weight="800" fill="#e7ebf3">EnsureCollege</text>
    <text x="79" y="49" font-family="'Hanken Grotesk',system-ui,Arial,sans-serif" font-size="15" font-weight="700" letter-spacing="0.12em" fill="#94a1b8">SCHOLARSHIPS &#183; PROGRAMS &#183; COMPETITIONS &#183; PLANNING</text>
  </g>

  <text transform="translate(76,244)" font-family="'Plus Jakarta Sans',system-ui,Arial,sans-serif" font-size="54" font-weight="800" letter-spacing="-0.02em" fill="#e7ebf3">
    <tspan x="0" y="0">Your whole college plan,</tspan>
    <tspan x="0" y="68">in one place.</tspan>
  </text>

  <text transform="translate(78,408)" font-family="'Hanken Grotesk',system-ui,Arial,sans-serif" font-size="24" font-weight="500" fill="#c4ccdc">
    <tspan x="0" y="0">Scholarships, summer programs, and competitions —</tspan>
    <tspan x="0" y="34">matched to you, with deadlines and a clear plan.</tspan>
  </text>

  <g transform="translate(78,506)" font-family="'Hanken Grotesk',system-ui,Arial,sans-serif" font-size="18" font-weight="600">
    <rect width="232" height="44" rx="22" fill="#20283f"/>
    <text x="22" y="28" fill="#a5b4fc">Transparent fit reasons</text>
    <rect x="248" width="212" height="44" rx="22" fill="#102a22"/>
    <text x="270" y="28" fill="#34d399">Source-linked steps</text>
    <rect x="476" width="200" height="44" rx="22" fill="#2c2410"/>
    <text x="498" y="28" fill="#f5b544">Verified deadlines</text>
  </g>

  <g transform="translate(1000,292)">
    <circle r="120" fill="#141a27" stroke="#232c41" stroke-width="2"/>
    <circle r="94" fill="none" stroke="#232c41" stroke-width="17"/>
    <circle r="94" fill="none" stroke="url(#rg)" stroke-width="17" stroke-linecap="round" stroke-dasharray="590" stroke-dashoffset="88" transform="rotate(-90)"/>
    <text y="-2" text-anchor="middle" font-family="'Plus Jakarta Sans',system-ui,Arial,sans-serif" font-size="56" font-weight="800" fill="#e7ebf3">92</text>
    <text y="34" text-anchor="middle" font-family="'Hanken Grotesk',system-ui,Arial,sans-serif" font-size="18" font-weight="700" letter-spacing="0.12em" fill="#94a1b8">FIT</text>
  </g>
</svg>
